<svg width="351" height="248" viewBox="0 0 351 248" fill="none" xmlns="http://www.w3.org/2000/svg">
<path d="M350.37 243.348C350.564 243.545 350.561 243.862 350.364 244.055L347.158 247.213C346.961 247.407 346.645 247.404 346.451 247.207C346.257 247.011 346.26 246.694 346.456 246.5L349.307 243.694L346.5 240.844C346.306 240.647 346.309 240.33 346.505 240.136C346.702 239.943 347.019 239.945 347.213 240.142L350.37 243.348ZM0.0279038 240.5L350.017 243.199L350.01 244.199L0.0201919 241.5L0.0279038 240.5Z" fill="white"/>
<line y1="-0.5" x2="93.0484" y2="-0.5" transform="matrix(-1 0 0 1 93.0482 1.5)" stroke="white"/>
<line y1="-0.5" x2="240" y2="-0.5" transform="matrix(0 1 1 0 1.02405 1)" stroke="white"/>
</svg>
