<svg width="1440" height="495" viewBox="0 0 1440 495" fill="none" xmlns="http://www.w3.org/2000/svg">
<path d="M1765.5 116.5C1765.5 168.559 1736.36 218.218 1683.51 263.449C1630.67 308.679 1554.18 349.434 1459.61 383.67C1270.48 452.14 1009.16 494.5 720.5 494.5C431.836 494.5 170.521 452.14 -18.6099 383.67C-113.177 349.434 -189.671 308.679 -242.514 263.449C-295.359 218.218 -324.5 168.559 -324.5 116.5C-324.5 64.4415 -295.359 14.7818 -242.514 -30.4494C-189.671 -75.6792 -113.177 -116.434 -18.6099 -150.67C170.521 -219.14 431.836 -261.5 720.5 -261.5C1009.16 -261.5 1270.48 -219.14 1459.61 -150.67C1554.18 -116.434 1630.67 -75.6792 1683.51 -30.4494C1736.36 14.7818 1765.5 64.4415 1765.5 116.5Z" stroke="#27AAE1" stroke-opacity="0.5"/>
</svg>
